<svg width="1355" height="258" viewBox="0 0 1355 258" fill="none" xmlns="http://www.w3.org/2000/svg">
<path d="M0.674086 255L83.932 5.93798H120.224L203.482 255H165.767L146.197 191.667H57.9584L38.0334 255H0.674086ZM68.2766 159.289H135.879L102.434 51.4808L68.2766 159.289ZM229.414 255V75.6754H263.927V110.188C272.11 86.3494 286.342 75.6754 311.604 75.6754H371.379V105.563H307.334C274.601 105.563 263.927 134.739 263.927 173.877V255H229.414ZM453.884 257.846C397.667 257.846 365.289 214.794 365.289 165.338C365.289 115.881 397.667 72.8289 453.884 72.8289C496.224 72.8289 532.516 97.7351 537.141 138.297H502.984C499.426 118.016 479.146 103.072 454.595 103.072C419.015 103.072 401.225 130.825 401.225 165.338C401.225 199.851 419.371 227.603 454.951 227.603C479.501 227.603 497.647 214.794 502.984 194.514H537.497C531.449 232.94 498.359 257.846 453.884 257.846ZM546.351 255V0.600946H580.863V107.342C590.47 84.9262 611.818 72.8289 638.504 72.8289C679.065 72.8289 705.394 102.005 705.394 144.701V255H670.882V151.461C670.882 122.997 654.159 103.784 628.897 103.784C600.788 103.784 580.863 126.555 580.863 157.866V255H546.351ZM793.948 118.016C793.948 110.188 789.322 105.563 781.495 105.563H712.469V75.6754H788.255C813.161 75.6754 828.461 90.9749 828.461 115.881V255H793.948V118.016ZM792.169 0.600946H830.595V44.0089H792.169V0.600946ZM920.928 255L849.411 75.6754H884.991L938.006 211.592L990.665 75.6754H1026.25L955.085 255H920.928ZM1111.95 257.846C1056.45 257.846 1022.29 214.083 1022.29 164.27C1022.29 114.102 1053.6 72.8289 1108.75 72.8289C1163.9 72.8289 1193.43 112.323 1193.43 157.866C1193.43 162.491 1193.08 168.54 1192.72 171.742H1056.09C1058.58 205.188 1081 228.315 1111.95 228.315C1138.28 228.315 1155.36 216.929 1160.34 196.648H1194.85C1188.81 233.652 1156.43 257.846 1111.95 257.846ZM1057.16 145.057H1158.56C1156.43 117.66 1138.28 100.582 1108.75 100.582C1081 100.582 1062.5 115.881 1057.16 145.057ZM1281.63 257.846C1235.37 257.846 1207.27 235.075 1204.42 196.648H1236.8C1239.64 217.997 1254.59 229.382 1281.63 229.382C1305.82 229.382 1320.77 219.776 1320.77 204.12C1320.77 159.645 1207.98 199.139 1207.98 126.199C1207.98 93.8213 1237.51 72.8289 1278.78 72.8289C1323.26 72.8289 1349.94 93.4655 1352.08 128.69H1319.34C1317.21 110.544 1302.26 99.8699 1278.78 99.8699C1256.01 99.8699 1241.07 109.121 1241.07 124.065C1241.07 166.761 1354.57 126.199 1354.57 200.918C1354.57 236.498 1326.1 257.846 1281.63 257.846Z" fill="#090909"/>
</svg>
