<svg width="32" height="32" viewBox="0 0 32 32" fill="none" xmlns="http://www.w3.org/2000/svg">
<rect width="32" height="32" fill="#090909"/>
<path d="M8.21076 25V8.33025H2.37087V5.80786H16.8746V8.33025H11.0622V25H8.21076Z" fill="white"/>
<path d="M20.9886 9.49609C20.0048 9.49609 19.0306 9.68987 18.1217 10.0663C17.2128 10.4428 16.3869 10.9947 15.6913 11.6903C14.2864 13.0952 13.4971 15.0007 13.4971 16.9876C13.4971 18.9745 14.2864 20.8799 15.6913 22.2849C16.3869 22.9805 17.2128 23.5323 18.1217 23.9088C19.0306 24.2853 20.0048 24.4791 20.9886 24.4791C22.9754 24.4791 24.8809 23.6898 26.2858 22.2849C27.6908 20.8799 28.4801 18.9745 28.4801 16.9876C28.4801 16.0038 28.2863 15.0296 27.9098 14.1207C27.5333 13.2118 26.9815 12.386 26.2858 11.6903C25.5902 10.9947 24.7643 10.4428 23.8554 10.0663C22.9465 9.68987 21.9724 9.49609 20.9886 9.49609ZM20.9886 22.9808C17.6848 22.9808 14.9954 20.2913 14.9954 16.9876C14.9954 13.6838 17.6848 10.9944 20.9886 10.9944C24.2923 10.9944 26.9818 13.6838 26.9818 16.9876C26.9818 20.2913 24.2923 22.9808 20.9886 22.9808ZM21.1758 17.939H20.0971V20.3588H18.7411V13.7737H21.1833C21.955 13.7737 22.5543 13.946 22.9813 14.2906C23.4008 14.6427 23.6106 15.1147 23.6106 15.759C23.6106 16.2085 23.5132 16.583 23.3184 16.8827C23.1236 17.1824 22.8315 17.4221 22.4344 17.5944L23.8578 20.2838V20.3588H22.4045L21.1758 17.939ZM20.0971 16.8452H21.1908C21.5279 16.8452 21.7902 16.7553 21.9774 16.583C22.1647 16.4107 22.2546 16.171 22.2546 15.8639C22.2546 15.5567 22.1722 15.317 21.9924 15.1372C21.8201 14.9574 21.5504 14.875 21.1833 14.875H20.0971V16.8452Z" fill="white"/>
</svg>
