<svg width="931" height="322" viewBox="0 0 931 322" fill="none" xmlns="http://www.w3.org/2000/svg">
<path d="M91.9454 250.521V37.9638H17.4805V5.80064H202.419V37.9638H128.303V250.521H91.9454ZM251.671 115.924C251.671 108.233 247.126 103.688 239.435 103.688H171.613V74.3223H246.078C270.55 74.3223 285.582 89.3551 285.582 113.827V250.521H251.671V115.924ZM249.923 0.556641H287.68V43.2078H249.923V0.556641ZM375.738 253.317C339.73 253.317 315.607 231.642 315.607 200.178C315.607 166.267 342.876 143.892 384.129 143.892H421.186C429.227 143.892 433.073 141.096 433.073 134.803C433.073 113.477 417.341 98.7943 390.422 98.7943C365.6 98.7943 348.12 114.176 347.071 132.006H315.607C318.404 97.3959 349.518 71.5255 391.47 71.5255C436.918 71.5255 466.634 97.7455 466.634 136.9V250.521H433.073V221.504C424.333 240.732 402.308 253.317 375.738 253.317ZM382.381 226.398C414.194 226.398 433.073 205.772 433.073 173.259V170.112H387.625C364.551 170.112 349.518 180.95 349.518 199.479C349.518 215.56 362.454 226.398 382.381 226.398ZM512.074 321.839V293.521H598.776C616.955 293.521 628.492 281.985 628.492 262.757V228.146C619.752 243.179 597.027 253.317 571.506 253.317C519.066 253.317 488.651 214.512 488.651 162.421C488.651 110.331 518.718 71.5255 571.857 71.5255C594.581 71.5255 617.305 82.0135 628.492 97.7455V74.3223H662.402V263.805C662.402 300.164 639.678 321.839 602.271 321.839H512.074ZM577.1 223.601C609.613 223.601 630.938 199.129 630.938 162.421C630.938 125.713 609.613 101.241 577.1 101.241C544.238 101.241 522.912 125.713 522.912 162.421C522.912 199.129 544.238 223.601 577.1 223.601ZM769.339 253.317C716.549 253.317 678.794 215.211 678.794 162.421C678.794 109.632 716.549 71.5255 769.339 71.5255C822.129 71.5255 859.886 109.632 859.886 162.421C859.886 215.211 822.129 253.317 769.339 253.317ZM769.339 223.601C802.901 223.601 825.276 198.43 825.276 162.421C825.276 126.412 802.901 101.241 769.339 101.241C735.777 101.241 713.404 126.412 713.404 162.421C713.404 198.43 735.777 223.601 769.339 223.601Z" fill="white"/>
<path d="M881.583 11.0977C876.266 11.0977 871.002 12.1449 866.09 14.1796C861.178 16.2142 856.714 19.1964 852.955 22.9559C845.362 30.5486 841.097 40.8465 841.097 51.5841C841.097 62.3218 845.362 72.6196 852.955 80.2123C856.714 83.9718 861.178 86.954 866.09 88.9887C871.002 91.0233 876.266 92.0705 881.583 92.0705C892.321 92.0705 902.619 87.805 910.211 80.2123C917.804 72.6196 922.069 62.3218 922.069 51.5841C922.069 46.2674 921.022 41.0027 918.988 36.0906C916.953 31.1786 913.971 26.7154 910.211 22.9559C906.452 19.1964 901.989 16.2142 897.077 14.1796C892.164 12.1449 886.9 11.0977 881.583 11.0977ZM881.583 83.9732C863.729 83.9732 849.194 69.4386 849.194 51.5841C849.194 33.7296 863.729 19.195 881.583 19.195C899.438 19.195 913.972 33.7296 913.972 51.5841C913.972 69.4386 899.438 83.9732 881.583 83.9732ZM882.595 56.7259H876.765V69.803H869.437V34.2155H882.636C886.806 34.2155 890.045 35.1466 892.352 37.009C894.62 38.9119 895.753 41.4625 895.753 44.9443C895.753 47.3735 895.227 49.3978 894.174 51.0173C893.122 52.6368 891.543 53.9323 889.397 54.8635L897.089 69.3981V69.803H889.235L882.595 56.7259ZM876.765 50.8149H882.676C884.498 50.8149 885.915 50.329 886.927 49.3978C887.939 48.4667 888.425 47.1711 888.425 45.5112C888.425 43.8512 887.98 42.5556 887.008 41.584C886.077 40.6123 884.62 40.167 882.636 40.167H876.765V50.8149Z" fill="white"/>
</svg>
