<svg width="931" height="322" viewBox="0 0 931 322" fill="none" xmlns="http://www.w3.org/2000/svg">
<path d="M91.9449 250.521V37.9635H17.48V5.80029H202.419V37.9635H128.303V250.521H91.9449ZM251.671 115.924C251.671 108.233 247.126 103.688 239.435 103.688H171.613V74.322H246.078C270.55 74.322 285.582 89.3548 285.582 113.827V250.521H251.671V115.924ZM249.923 0.556295H287.68V43.2075H249.923V0.556295ZM375.738 253.317C339.73 253.317 315.607 231.642 315.607 200.178C315.607 166.267 342.876 143.892 384.129 143.892H421.186C429.227 143.892 433.073 141.096 433.073 134.803C433.073 113.477 417.341 98.794 390.422 98.794C365.6 98.794 348.12 114.176 347.071 132.006H315.607C318.404 97.3956 349.518 71.5252 391.47 71.5252C436.918 71.5252 466.634 97.7452 466.634 136.9V250.521H433.073V221.504C424.333 240.732 402.308 253.317 375.738 253.317ZM382.381 226.398C414.194 226.398 433.073 205.772 433.073 173.259V170.112H387.625C364.551 170.112 349.518 180.95 349.518 199.479C349.518 215.56 362.454 226.398 382.381 226.398ZM512.074 321.839V293.521H598.775C616.954 293.521 628.491 281.985 628.491 262.757V228.146C619.751 243.179 597.027 253.317 571.506 253.317C519.066 253.317 488.651 214.512 488.651 162.421C488.651 110.331 518.717 71.5252 571.856 71.5252C594.58 71.5252 617.304 82.0132 628.491 97.7452V74.322H662.402V263.805C662.402 300.164 639.678 321.839 602.271 321.839H512.074ZM577.1 223.601C609.613 223.601 630.938 199.129 630.938 162.421C630.938 125.713 609.613 101.241 577.1 101.241C544.238 101.241 522.912 125.713 522.912 162.421C522.912 199.129 544.238 223.601 577.1 223.601ZM769.339 253.317C716.549 253.317 678.793 215.211 678.793 162.421C678.793 109.632 716.549 71.5252 769.339 71.5252C822.129 71.5252 859.886 109.632 859.886 162.421C859.886 215.211 822.129 253.317 769.339 253.317ZM769.339 223.601C802.901 223.601 825.275 198.43 825.275 162.421C825.275 126.412 802.901 101.241 769.339 101.241C735.777 101.241 713.403 126.412 713.403 162.421C713.403 198.43 735.777 223.601 769.339 223.601Z" fill="#090909"/>
<path d="M881.583 11.0986C876.266 11.0986 871.002 12.1458 866.09 14.1805C861.178 16.2151 856.714 19.1973 852.955 22.9568C845.362 30.5495 841.097 40.8474 841.097 51.585C841.097 62.3227 845.362 72.6205 852.955 80.2132C856.714 83.9727 861.178 86.9549 866.09 88.9896C871.002 91.0242 876.266 92.0714 881.583 92.0714C892.321 92.0714 902.619 87.8059 910.211 80.2132C917.804 72.6205 922.069 62.3227 922.069 51.585C922.069 46.2683 921.022 41.0036 918.988 36.0915C916.953 31.1795 913.971 26.7163 910.211 22.9568C906.452 19.1973 901.989 16.2151 897.077 14.1805C892.164 12.1458 886.9 11.0986 881.583 11.0986ZM881.583 83.9741C863.729 83.9741 849.194 69.4395 849.194 51.585C849.194 33.7305 863.729 19.1959 881.583 19.1959C899.438 19.1959 913.972 33.7305 913.972 51.585C913.972 69.4395 899.438 83.9741 881.583 83.9741ZM882.595 56.7268H876.765V69.8039H869.437V34.2164H882.636C886.806 34.2164 890.045 35.1475 892.352 37.0099C894.62 38.9128 895.753 41.4634 895.753 44.9452C895.753 47.3744 895.227 49.3987 894.174 51.0182C893.122 52.6377 891.543 53.9332 889.397 54.8644L897.089 69.399V69.8039H889.235L882.595 56.7268ZM876.765 50.8158H882.676C884.498 50.8158 885.915 50.3299 886.927 49.3987C887.939 48.4676 888.425 47.172 888.425 45.5121C888.425 43.8521 887.98 42.5565 887.008 41.5849C886.077 40.6132 884.62 40.1679 882.636 40.1679H876.765V50.8158Z" fill="#090909"/>
</svg>
