<svg width="116" height="20" viewBox="0 0 116 20" fill="none" xmlns="http://www.w3.org/2000/svg">
<path fill-rule="evenodd" clip-rule="evenodd" d="M31.0596 0.357422L21.1943 19.6432H11.9279L16.0565 11.6503H15.8713C12.4652 16.0719 7.38316 18.9827 0.14209 19.6432V11.761C0.14209 11.761 4.77438 11.4874 7.49757 8.62434H0.14209V0.357574H8.40886V7.15687L8.5944 7.15611L11.9725 0.357574H18.2245V7.11376L18.4099 7.11346L21.9148 0.357422H31.0596Z" fill="white"/>
<path d="M84.8565 17.5145H87.5189V2.23243H84.8565V17.5145Z" fill="white"/>
<path fill-rule="evenodd" clip-rule="evenodd" d="M70.1789 17.3585C70.7575 17.599 71.3459 17.7193 71.9441 17.7193C72.9323 17.7193 73.8165 17.4788 74.5967 16.9976C75.3768 16.5165 75.9816 15.8534 76.4107 15.0082C76.8398 14.1565 77.0543 13.1909 77.0543 12.1116C77.0543 11.0324 76.8332 10.0669 76.3912 9.21522C75.949 8.36351 75.3346 7.7036 74.5479 7.23548C73.7612 6.76086 72.8672 6.52681 71.866 6.5333C71.2289 6.5333 70.6177 6.65684 70.0325 6.9039C69.4474 7.15096 68.9598 7.50205 68.5697 7.95716C68.5396 7.99181 68.5103 8.02681 68.4819 8.06215V2.24224H65.8098V17.5146H68.4624L68.4571 16.0878C68.5257 16.172 68.5991 16.2541 68.6769 16.3345C69.0995 16.7701 69.6002 17.1114 70.1789 17.3585ZM72.9095 14.8912C72.4739 15.1577 71.9765 15.291 71.4174 15.291C70.8647 15.291 70.3576 15.1544 69.896 14.8814C69.4343 14.6018 69.0671 14.2215 68.7939 13.7403C68.5274 13.2593 68.3941 12.713 68.3941 12.1019C68.3877 11.4908 68.5176 10.9446 68.7842 10.4635C69.0573 9.97592 69.4246 9.59881 69.8863 9.33225C70.3478 9.05918 70.8583 8.9259 71.4174 8.9324C71.9765 8.9259 72.4739 9.05593 72.9095 9.3225C73.3516 9.58256 73.6897 9.9564 73.9238 10.444C74.1643 10.9251 74.2846 11.4778 74.2846 12.1019C74.2846 12.7261 74.1643 13.2788 73.9238 13.7598C73.6897 14.241 73.3516 14.6181 72.9095 14.8912Z" fill="white"/>
<path d="M34.9166 3.15895H37.9594L40.6812 13.0993L43.5768 3.15895H46.1124L49.2527 12.8998L51.8664 3.15895H54.6555L50.54 17.5145H47.9166L44.7233 7.99849L41.7921 17.5145H39.1394L34.9166 3.15895Z" fill="white"/>
<path fill-rule="evenodd" clip-rule="evenodd" d="M59.1492 17.768C58.0893 17.7746 57.1336 17.5405 56.2819 17.0659C55.4367 16.5847 54.7703 15.9183 54.2826 15.0666C53.8016 14.2149 53.561 13.2429 53.561 12.1506C53.561 11.0908 53.8081 10.1319 54.3022 9.2737C54.7963 8.41548 55.4659 7.74581 56.3112 7.26469C57.1564 6.78358 58.0991 6.54302 59.1393 6.54302C60.3097 6.54302 61.3336 6.80308 62.2114 7.3232C63.0956 7.84333 63.7555 8.58127 64.1911 9.537C64.6332 10.4862 64.7925 11.5752 64.669 12.8041H56.3154C56.3387 13.2936 56.4609 13.739 56.6818 14.1401C56.9289 14.5822 57.2734 14.9268 57.7155 15.1739C58.1577 15.4209 58.6517 15.5445 59.1979 15.5445C59.614 15.5379 60.0009 15.4665 60.3584 15.33C60.7161 15.1869 61.0183 14.9952 61.2654 14.7545C61.519 14.514 61.6978 14.241 61.8018 13.9354H64.591C64.4219 14.683 64.0839 15.3495 63.5768 15.9346C63.0696 16.5133 62.4325 16.9651 61.6652 17.2902C60.8981 17.6152 60.0594 17.7746 59.1492 17.768ZM56.6915 10.1222C56.5358 10.3938 56.4277 10.6864 56.3676 10.9999H61.9051C61.865 10.6039 61.7427 10.243 61.5385 9.91735C61.3044 9.53375 60.9858 9.23793 60.5828 9.02988C60.1797 8.81533 59.7246 8.70805 59.2174 8.70805C58.6778 8.70805 58.1869 8.83158 57.7448 9.07864C57.3027 9.3257 56.9516 9.67354 56.6915 10.1222Z" fill="white"/>
<path d="M79.0148 6.76734C79.0148 5.89613 79.2131 5.12244 79.6097 4.44626C80.0062 3.7636 80.5622 3.23371 81.2774 2.85662C81.999 2.47303 82.841 2.27472 83.8032 2.26173V4.63156C83.3546 4.63806 82.971 4.73234 82.6525 4.91438C82.3404 5.08993 82.0998 5.34674 81.9308 5.68482C81.7752 5.99607 81.6912 6.35691 81.6789 6.76734H83.7447V9.02015H81.6773V17.5145H79.0148V9.02015H77.2984V6.76734H79.0148Z" fill="white"/>
<path fill-rule="evenodd" clip-rule="evenodd" d="M94.2867 17.7485C93.2009 17.7485 92.2289 17.5112 91.3707 17.0366C90.519 16.5554 89.8493 15.8923 89.3617 15.0471C88.8805 14.1954 88.64 13.2299 88.64 12.1506C88.64 11.0649 88.8805 10.0961 89.3617 9.24439C89.8493 8.38617 90.519 7.71976 91.3707 7.24514C92.2289 6.77052 93.2009 6.53321 94.2867 6.53321C95.3789 6.53321 96.3542 6.77052 97.2123 7.24514C98.0771 7.71976 98.7501 8.38292 99.2311 9.23464C99.7122 10.0863 99.9561 11.0583 99.9626 12.1506C99.9561 13.2299 99.7122 14.1954 99.2311 15.0471C98.7565 15.8923 98.0868 16.5554 97.2221 17.0366C96.3574 17.5112 95.3789 17.7485 94.2867 17.7485ZM94.2867 15.3007C94.8588 15.3007 95.3659 15.1706 95.808 14.9106C96.2502 14.644 96.5914 14.2734 96.8321 13.7987C97.0726 13.3177 97.1928 12.7682 97.1928 12.1506C97.1928 11.5264 97.0726 10.9738 96.8321 10.4927C96.5914 10.0116 96.2502 9.64099 95.808 9.38092C95.3659 9.11436 94.8588 8.98107 94.2867 8.98107C93.7211 8.98107 93.2172 9.11436 92.775 9.38092C92.3395 9.64099 92.0013 10.0116 91.7608 10.4927C91.5202 10.9738 91.4032 11.5264 91.4097 12.1506C91.4097 12.7682 91.53 13.3177 91.7705 13.7987C92.0176 14.2734 92.3556 14.644 92.7848 14.9106C93.2204 15.1706 93.7211 15.3007 94.2867 15.3007Z" fill="white"/>
<path d="M102.84 6.76732H99.8749L103.083 17.5145H105.678L107.788 10.6503L110.066 17.5145H112.621L115.84 6.76732H113.158L111.332 13.4568L109.315 6.76732H106.721L104.713 13.6041L102.84 6.76732Z" fill="white"/>
</svg>
